<svg xmlns="http://www.w3.org/2000/svg" viewBox="0 292 360 360" width="360" height="360">
  <!-- Cosmos Burger favicon: the script C cropped out of the wordmark
       (public/brand/logo.svg, path .st0), yellow on the brand purple.
       The full wordmark is illegible at 16px; the C still reads. Colours are
       literal here because a favicon is rendered outside the document and
       cannot resolve a CSS token. Keep them in step with app/globals.css. -->
  <rect x="0" y="292" width="360" height="360" rx="56" fill="#751080"/>
  <path fill="#FAF00C" fill-rule="evenodd" clip-rule="evenodd" d="M913.6,549.5c0,5.1,1.1,9.7,3.3,13.7c2.2,4.1,6,6.1,11.4,6.1c9,0,15.9-3.2,20.6-9.7c4.7-6.5,8.3-14.2,10.6-23.2 c2.3-9,3.9-18.3,4.6-28c0.8-9.6,1.7-17.5,2.7-23.6c-5.9,4.1-11.7,8.3-17.4,12.6c-5.7,4.3-11,8.9-16.2,13.7c2.6,2.5,3.9,5,3.9,7.2 c-3.6,0-6.8,1.1-9.6,3.2c-2.8,2.2-5.3,4.9-7.3,8.2c-2.1,3.3-3.7,6.7-4.8,10.3C914.2,543.5,913.6,546.7,913.6,549.5z M291.7,556 c0,4.3,1.1,7.6,3.5,9.9c2.3,2.3,4.9,3.4,7.7,3.4c6.7,0,13.2-1.9,19.7-5.7c6.4-3.8,12.6-8.6,18.5-14.5c-1.8-1.3-3.4-2.7-4.6-4.4 c-1.3-1.6-2.3-3.6-3.1-5.9c-0.3-1-0.4-2-0.4-2.8c0-0.9,0-1.7,0-2.5c0.3-4.6,1.7-9,4.2-13.3c2.6-4.3,5.6-7.9,9.2-10.7 c6.9-6.3,15-10.2,24.3-11.4c1.8-5.3,2.7-10.7,2.7-16c0-3-0.8-6.4-2.3-10.1c-1.6-3.7-4.6-5.5-9.3-5.5c-7.5,0-15.3,3.4-23.5,10.1 c-8.2,6.7-15.8,14.8-22.7,24.4c-7,9.5-12.7,19.4-17.2,29.5C294,540.6,291.7,549.1,291.7,556z M413.5,549.5c0,5.1,1.1,9.7,3.3,13.7 c2.2,4.1,6,6.1,11.4,6.1c9,0,15.9-3.2,20.6-9.7c4.7-6.5,8.3-14.2,10.6-23.2c2.3-9,3.9-18.3,4.6-28c0.8-9.6,1.7-17.5,2.7-23.6 c-5.9,4.1-11.7,8.3-17.4,12.6c-5.7,4.3-11,8.9-16.2,13.7c2.6,2.5,3.9,5,3.9,7.2c-3.6,0-6.8,1.1-9.6,3.2c-2.8,2.2-5.3,4.9-7.3,8.2 c-2.1,3.3-3.7,6.7-4.8,10.3C414.1,543.5,413.5,546.7,413.5,549.5z M791.8,556c0,4.3,1.2,7.6,3.5,9.9c2.3,2.3,4.9,3.4,7.7,3.4 c6.7,0,13.2-1.9,19.7-5.7c6.4-3.8,12.6-8.6,18.5-14.5c-1.8-1.3-3.3-2.7-4.6-4.4c-1.3-1.6-2.3-3.6-3.1-5.9c-0.3-1-0.4-2-0.4-2.8 c0-0.9,0-1.7,0-2.5c0.3-4.6,1.7-9,4.2-13.3c2.6-4.3,5.7-7.9,9.3-10.7c6.9-6.3,15-10.2,24.3-11.4c1.8-5.3,2.7-10.7,2.7-16 c0-3-0.8-6.4-2.3-10.1c-1.6-3.7-4.6-5.5-9.3-5.5c-7.5,0-15.3,3.4-23.5,10.1c-8.2,6.7-15.8,14.8-22.7,24.4 c-6.9,9.5-12.7,19.4-17.2,29.5C794,540.6,791.8,549.1,791.8,556z M1039.6,523.8c-3.4,5.3-7.9,11.8-13.5,19.4 c-6.8,9.3-14.5,18.6-22.9,28c-8.5,9.4-17.3,17.8-26.4,25.3c-9.1,7.5-17.7,12.3-25.6,14.3c-10.3,5.1-21.5,7.6-33.5,7.6 c-13.9,0-24.8-4.1-32.8-12.4c-8-8.3-12-19.1-12-32.6v-1.9c0.3-5.6,1.6-11.8,4-18.7c0,0,0-0.1,0-0.1c-3.4,0.9-6.9,1.4-10.6,1.6 c-4.9,8.4-10.4,16.4-16.6,24c-6.2,7.6-12.9,14.3-20.1,20c-7.2,5.7-14.7,10.2-22.6,13.5c-7.8,3.3-16,4.9-24.5,4.9 c-5.7,0-10.8-1-15.4-3c-4.6-2-8.6-4.9-12-8.6c-3.3-3.7-6-7.9-7.9-12.6c-1.9-4.7-2.9-9.7-2.9-15c0-1.1,0-2.3,0.1-3.4 c-0.9,1.1-1.9,2.2-2.8,3.2c-6.4,7.2-12.8,13.8-19.3,19.6c-6.4,5.8-12.8,10.6-19.1,14.3c-6.3,3.7-12,5.5-17.2,5.5 c-4.6,0-8.6-1.2-12-3.6c-3.3-2.4-6.1-5.5-8.3-9.1c-2.2-3.7-3.9-7.7-5-12c-1.2-4.3-1.7-8.4-1.7-12.2c0-7.1,1.5-14.4,4.6-21.9 c3.1-7.5,7-14.8,11.8-21.9c4.7-7.1,9.9-14,15.4-20.6c5.5-6.6,10.7-12.8,15.4-18.7c4.8-5.8,8.7-11,11.8-15.6 c3.1-4.6,4.6-8.4,4.6-11.4c0-2.3-1.1-3.4-3.5-3.4c-3.6,0-8.7,3.1-15.2,9.3c-6.5,6.2-13.7,14.1-21.6,23.6 c-7.8,9.5-15.9,20.1-24.1,31.6c-8.2,11.6-15.9,22.7-22.9,33.3c-7.1,10.7-13.1,20.1-18.1,28.4c-5,8.3-8.2,13.9-9.5,17 c-5.1,0-9.4-1-12.9-3c-3.5-2-6.2-4.6-8.3-7.6c-2.1-3-3.5-6.3-4.2-9.9c-0.8-3.5-1.2-7-1.2-10.3c0-7.1,1.6-14.3,4.8-21.5 c3.2-7.2,7.1-14.4,11.8-21.5c4.6-7.1,9.8-14,15.4-20.8s10.8-13,15.4-18.7c4.6-5.7,8.5-10.8,11.8-15.2c3.2-4.4,4.8-8.2,4.8-11.2 c0-2.3-1.2-3.4-3.5-3.4c-3.6,0-8.5,2.9-14.8,8.8c-6.3,5.9-13.2,13.3-20.6,22.5c-7.5,9.1-15.2,19.3-23.3,30.5 c-8.1,11.2-15.6,22-22.6,32.4c-6.9,10.4-13,19.9-18.3,28.6c-5.3,8.6-8.9,14.9-11,18.7l-3.9,9.1h-50.5c8.9-14.8,17.6-29.9,25.9-45.3 c-8.4,9.2-17.1,17.6-26.1,25c-9.1,7.5-17.7,12.3-25.6,14.3c-10.3,5.1-21.5,7.6-33.6,7.6c-13.9,0-24.8-4.1-32.8-12.4 c-8-8.3-12-19.1-12-32.6v-1.9c0.3-5.6,1.6-11.8,4-18.7c0,0,0-0.1,0-0.1c-3.4,0.9-6.9,1.4-10.6,1.6c-4.9,8.4-10.4,16.4-16.6,24 c-6.2,7.6-12.8,14.3-20,20c-7.2,5.7-14.7,10.2-22.6,13.5c-7.8,3.3-16,4.9-24.5,4.9c-5.7,0-10.8-1-15.4-3c-4.6-2-8.6-4.9-12-8.6 c-3.4-3.7-6-7.9-7.9-12.6c-1.9-4.7-2.9-9.7-2.9-15c0-2.5,0.2-5,0.6-7.7c-12.8,14.1-26.6,26.9-41.3,38.3 c-15.2,11.8-31.2,21.4-48.1,28.9c4.2,0,8.5,0,9,0c235.7,0,471.4,0,707.1,0c8.6,0,17.2-0.2,25.8-0.3c15.4-0.2,30.7-1.5,46-3.9 c16.5-2.5,32.3-7.3,47-16c22.3-13.1,37.1-33.1,44.5-59.6c2.7-9.7,4.3-19.7,5.4-29.8C1040.6,526.1,1040.6,524.7,1039.6,523.8z M1059.4,486.3c-2.7,5.3-6.1,10.1-9,15.2c-0.8,1.3-1.4,3-1.5,4.6c-0.4,10.9-0.4,21.8-1.1,32.6c-1.6,28.6-8.2,55.6-22.4,80 c-10.4,17.9-24.4,31.5-41.2,41.7c-19.3,11.7-40.1,18.7-61.8,22.3c-11.1,1.8-22.3,3.4-33.4,3.8c-22.7,0.8-45.5,0.8-68.3,1.1 c-17.6,0.2-35.2,0.3-52.7,0.5c-14.1,0.2-28.2,0.6-42.2,0.9c-10.1,0.3-20.3,0.6-30.4,1c-11.5,0.4-23,0.9-34.5,1.5 c-14.6,0.7-29.3,1.5-43.9,2.4c-11.3,0.7-22.5,1.5-33.8,2.4c-11.9,1-23.8,2.1-35.7,3.2c-11.5,1.1-22.9,2.1-34.4,3.5 c-16.9,2.2-33.8,4.5-50.7,7c-23.5,3.5-46.9,8.2-70.1,14c-24.8,6.2-49.2,13.9-72.7,24.5c-11.4,5.2-22.3,11.4-33.4,17.2 c-1.6,0.8-2.3,0.8-3.3-0.9c-10.7-17.8-23.1-34.1-36.7-49.4c-25.3-28.5-53.8-52.5-85.8-71.4c-2.9-1.7-5.9-3.4-8.9-5.1 c-17.1,7.1-34.6,10.6-52.5,10.6c-13.1,0-24.6-2.4-34.5-7.2c-9.9-4.8-18.2-11.2-24.9-19c-6.7-7.9-11.7-16.9-15-27 c-3.3-10.2-5-20.7-5-31.6c0-16.5,3.2-34.1,9.6-52.9c6.4-18.8,15.4-37.5,26.8-56.2c11.4-18.7,25.1-36.5,40.9-53.5 c15.8-17,33-32.1,51.7-45.1c18.6-13.1,38.3-23.5,59-31.4c20.7-7.9,41.8-11.8,63.4-11.8c21.1,0,36,3.9,44.9,11.6 c8.9,7.8,13.3,17.1,13.3,28c0,8.1-2.2,16.2-6.7,24.2c-4.5,8-10.2,15.2-17,21.5c-6.8,6.3-14.3,11.5-22.6,15.4 c-8.2,3.9-16.2,5.9-23.9,5.9c-3.1,0-6.1-0.3-9.1-0.9c-3-0.6-5.7-1.7-8.3-3.2c6.7-3.8,13.6-8.8,20.6-15c7.1-6.2,13.5-12.8,19.3-19.6 c5.8-6.9,10.5-13.7,14.3-20.4c3.7-6.7,5.6-12.6,5.6-17.7c0-4.1-1.4-7.3-4-9.7c-2.7-2.4-7.3-3.6-13.7-3.6c-13.6,0-27.8,3.2-42.4,9.7 c-14.7,6.5-29.1,15-43.2,25.7c-14.1,10.7-27.6,23-40.3,37c-12.7,14-23.9,28.5-33.4,43.6c-9.5,15.1-17.1,30.2-22.7,45.1 c-5.7,15-8.5,28.9-8.5,41.9c0,7.4,1,14.3,2.9,20.8c1.9,6.5,4.9,12.1,9.1,17c4.1,4.8,9.4,8.7,16,11.6c6.5,2.9,14.6,4.4,24.1,4.4 c10,0,20.7-1.5,32-4.6c11.3-3,22.6-7.6,33.9-13.7c11.3-6.1,22.4-13.8,33.3-23c5.9-5,11.5-10.4,16.8-16.4c0.9-1.5,1.9-3.1,2.9-4.6 c6-9.3,13-18.3,20.8-27c7.8-8.8,16.1-16.6,24.9-23.4c8.7-6.9,17.5-12.3,26.4-16.4c8.9-4,17.3-6.1,25.2-6.1c9.5,0,16.3,3.2,20.4,9.5 c4.1,6.4,6.2,13.6,6.2,21.7s-1.1,17-3.5,26.5c-2.3,9.5-5.7,19.1-10,28.8c2.8-0.3,5.8-1.3,8.9-3c1.3-0.7,2.5-1.5,3.7-2.3 c4.1-5.9,8.9-11.1,14.2-15.6c1.5-1.3,3.1-2.4,4.7-3.5c0.3-0.2,0.3-0.2,0.6-0.4l0.2-0.1c3.9-2.4,7.9-4.2,12.1-5.2 c6.2-6.6,14.1-13.5,23.7-20.6c9.6-7.1,18.4-14,26.4-20.6c2.1-8.6,5.5-16.1,10.2-22.5c4.7-6.4,10.3-9.5,16.8-9.5 c3.6,0,6.4,0.9,8.5,2.8c2.1,1.9,3.1,4.6,3.1,8.2c0,4.3-2,8.4-6,12.2c-4,3.8-7.7,7-11,9.5c2.3,8.9,4.2,17.9,5.6,27 c1.4,9.1,2.1,18.5,2.1,28.2c0,5.6-0.3,11-0.8,16.4c-0.5,5.3-1.4,10.7-2.7,16c3.9-3.3,7.8-6.9,11.8-10.9c4-3.9,7.7-7.9,11-11.8 c3.3-3.9,6.3-7.6,8.9-11c2.1-2.8,3.9-5.2,5.3-7.3c9-18.5,17.8-37,26.4-55.4h50.1c-5.9,8.9-11.7,18.2-17.3,27.8 c-5.7,9.7-11.2,19.7-16.6,30.1c6.4-8.4,12.9-16.5,19.5-24.4c6.5-7.9,13-14.9,19.5-21c6.4-6.1,12.5-10.9,18.3-14.5 c5.8-3.6,11-5.3,15.6-5.3c3.6,0,7.3,0.6,11,1.9c3.7,1.3,7.1,3.1,10,5.3c2.9,2.3,5.3,5,7.1,8.2c1.8,3.2,2.7,6.7,2.7,10.5 c0,1.3-0.1,2.6-0.2,4c-0.1,1.4-0.3,2.7-0.6,4c9-9.9,17.6-18,25.7-24.4c8.1-6.4,15.3-9.5,21.8-9.5c3.6,0,7.2,0.6,11,1.9 c3.7,1.3,7.1,3.1,10,5.3c3,2.3,5.3,5,7.1,8.2c1.8,3.2,2.7,6.7,2.7,10.5c0,7.4-2.2,15.3-6.7,23.8c-4.5,8.5-9.4,16.8-14.6,24.8 c-5.3,8-10.2,15.5-14.6,22.5c-4.5,7-6.7,12.8-6.7,17.3c0,0.8,0.2,1.5,0.6,2.3c0.4,0.8,1.1,1.1,2.1,1.1c4.1,0,9.2-2.3,15.2-6.9 c6-4.6,12.1-9.9,18.1-16c2.4-2.4,4.7-4.9,7-7.4c2.5-4.8,5.3-9.7,8.5-14.5c6-9.3,13-18.3,20.8-27c7.8-8.8,16.1-16.6,24.9-23.4 c8.7-6.9,17.5-12.3,26.4-16.4c8.9-4,17.3-6.1,25.3-6.1c9.5,0,16.3,3.2,20.4,9.5c4.1,6.4,6.2,13.6,6.2,21.7s-1.2,17-3.5,26.5 c-2.3,9.5-5.7,19.1-10,28.8c2.8-0.3,5.8-1.3,8.9-3c1.3-0.7,2.5-1.5,3.7-2.3c4.1-5.9,8.9-11.1,14.2-15.6c1.5-1.3,3.1-2.4,4.7-3.5 c0.2-0.2,0.3-0.5,0.5-0.7l0.3,0.2c3.9-2.4,7.9-4.2,12.1-5.2c6.2-6.6,14.1-13.5,23.7-20.6c9.6-7.1,18.4-14,26.4-20.6 c2.1-8.6,5.5-16.1,10.2-22.5c4.8-6.4,10.3-9.5,16.8-9.5c3.6,0,6.4,0.9,8.5,2.8c2.1,1.9,3.1,4.6,3.1,8.2c0,4.3-2,8.4-6,12.2 c-4,3.8-7.7,7-11,9.5c2.3,8.9,4.2,17.9,5.6,27c1.4,9.1,2.1,18.5,2.1,28.2c0,5.6-0.3,11-0.8,16.4c-0.5,5.3-1.4,10.7-2.7,16 c3.9-3.3,7.8-6.9,11.8-10.9c4-3.9,7.6-7.9,11-11.8c3.3-3.9,6-7.8,8.9-11c2.7-3.1,4.7-5.1,6.3-6.8c1.6-1.9,3.1-4,4.6-6.1 c0.7-1,1.5-2,2.2-2.9c1.6-2.1,2.2-4.4,2.2-7.1c0.1-7.1,0.7-14.3,3.7-20.8c1.7-3.6,4.2-7,6.9-9.6c3.5-3.4,7.5-1.6,8.6,3.4 C1062.2,476.7,1061.7,481.8,1059.4,486.3z"/>
</svg>
